# xmcd CD database file
#
# Track frame offsets:
#	150
#	18101
#	37155
#	51116
#	74241
#	85968
#	109967
#	122266
#	145986
#	165263
#	189800
#	209043
#	232502
#	252131
#	268126
#	290039
#	306864
#	319302
#
# Disc length: 4446 seconds
#
# Revision: 0
# Processed by: cddbd v1.5.2PL0 Copyright (c) Steve Scherf et al.
# Submitted via: CDex 1.51
#
DISCID=06115c12
DTITLE=Oscar Peterson - Tracks
DYEAR=1900
DGENRE=Jazz
TTITLE0=Give me the simple life
TTITLE1=Basin Street Blues
TTITLE2=Honeysuckle Rose
TTITLE3=Dancing on the ceiling
TTITLE4=A child is born
TTITLE5=If I should lose you
TTITLE6=A little Jazz exercise
TTITLE7=Django
TTITLE8=Ja Da
TTITLE9=Just a Gigolo
TTITLE10=Say it (over and over again)
TTITLE11=You don´t know what love is
TTITLE12=Too young to go steady
TTITLE13=All or nothing at all
TTITLE14=I wish I knew
TTITLE15=What´s new
TTITLE16=It´s easy to remember
TTITLE17=Nancy (with the laughing face)
EXTD=
EXTT0=
EXTT1=
EXTT2=
EXTT3=
EXTT4=
EXTT5=
EXTT6=
EXTT7=
EXTT8=
EXTT9=
EXTT10=
EXTT11=
EXTT12=
EXTT13=
EXTT14=
EXTT15=
EXTT16=
EXTT17=
PLAYORDER=
